<svg width="64" height="64" viewBox="0 0 64 64" fill="none" xmlns="http://www.w3.org/2000/svg">
<path fill-rule="evenodd" clip-rule="evenodd" d="M31.9688 0C49.6418 0 63.9696 14.3234 63.9696 31.9954C63.9696 49.6674 49.6418 63.9997 31.9688 63.9997C14.2957 63.9997 -0.03125 49.6674 -0.03125 31.9954C-0.03125 14.3234 14.2967 0 31.9688 0ZM51.2276 51.2428C51.3632 51.1034 51.4684 50.9375 51.5367 50.7555C51.6051 50.5734 51.635 50.3793 51.6246 50.1851C51.3981 45.1244 49.2282 40.3461 45.567 36.845C41.9057 33.344 37.0351 31.3901 31.9693 31.3901C26.9035 31.3901 22.0329 33.344 18.3717 36.845C14.7104 40.3461 12.5406 45.1244 12.314 50.1851C12.3055 50.3791 12.3363 50.5728 12.4047 50.7546C12.473 50.9363 12.5774 51.1024 12.7116 51.2427C12.8458 51.3831 13.007 51.4948 13.1855 51.5712C13.3641 51.6476 13.5562 51.6871 13.7504 51.6873H50.1879C50.3825 51.689 50.5754 51.6504 50.7543 51.5739C50.9333 51.4974 51.0944 51.3847 51.2276 51.2428ZM41.4618 21.8044C41.4618 19.9269 40.905 18.0917 39.862 16.5306C38.8189 14.9696 37.3364 13.7529 35.6019 13.0344C33.8673 12.316 31.9587 12.128 30.1174 12.4943C28.276 12.8605 26.5846 13.7646 25.257 15.0922C23.9295 16.4197 23.0254 18.1111 22.6591 19.9525C22.2929 21.7938 22.4809 23.7025 23.1993 25.437C23.9178 27.1715 25.1345 28.6541 26.6955 29.6971C28.2565 30.7402 30.0918 31.2969 31.9692 31.2969C34.486 31.2941 36.8988 30.2931 38.6784 28.5135C40.458 26.7339 41.459 24.3211 41.4618 21.8044Z" fill="#E8E8E8"/>
</svg>
