<svg width="24" height="24" viewBox="0 0 24 24" fill="none" xmlns="http://www.w3.org/2000/svg">
<g clip-path="url(#clip0_356_1210)">
<path d="M19.6622 0H2.12391C0.978516 0 0.046875 0.931641 0.046875 2.07698V21.923C0.046875 23.0684 0.978516 24 2.12386 24H19.6622C20.8075 24 21.7392 23.0684 21.7392 21.923V2.07703C21.7392 0.931641 20.8076 0 19.6622 0ZM1.43156 2.07698C1.43156 1.69519 1.74206 1.38464 2.12386 1.38464H19.6622C20.0439 1.38464 20.3545 1.69519 20.3545 2.07698V4.84608H1.43147L1.43156 2.07698ZM20.3545 21.923C20.3545 22.3048 20.044 22.6153 19.6622 22.6153H2.12391C1.74211 22.6153 1.43156 22.3048 1.43156 21.923V6.23063H20.3545V21.923Z" fill="#606060"/>
<path d="M15.5081 2.4231H14.1239C13.7415 2.4231 13.4315 2.73313 13.4315 3.11544C13.4315 3.49775 13.7415 3.80778 14.1239 3.80778H15.5081C15.8904 3.80778 16.2005 3.49775 16.2005 3.11544C16.2005 2.73313 15.8904 2.4231 15.5081 2.4231ZM19.2012 2.4231H17.8169C17.4346 2.4231 17.1246 2.73313 17.1246 3.11544C17.1246 3.49775 17.4346 3.80778 17.8169 3.80778H19.2012C19.5835 3.80778 19.8933 3.49775 19.8933 3.11544C19.8933 2.73313 19.5835 2.4231 19.2012 2.4231ZM4.20117 14.4231C4.20117 18.1132 7.20319 21.1154 10.8933 21.1154C14.5836 21.1154 17.5857 18.1132 17.5857 14.4231C17.5857 14.2435 17.5783 14.0655 17.5644 13.8896C17.5644 13.8886 17.5642 13.8877 17.5642 13.887C17.2901 10.4466 14.4031 7.7308 10.8933 7.7308C7.38375 7.7308 4.49672 10.4466 4.22259 13.887C4.22241 13.8877 4.22241 13.8886 4.22241 13.8896C4.20848 14.0655 4.20117 14.2435 4.20117 14.4231ZM10.8933 19.7308C8.08556 19.7308 5.78048 17.5392 5.59772 14.777C5.74716 14.8386 5.87953 14.9199 6.03061 15.0127C6.43889 15.2641 6.94739 15.5771 7.89333 15.5771C8.83927 15.5771 9.34753 15.2643 9.75605 15.0129C10.0946 14.8045 10.3391 14.654 10.8931 14.654C11.4472 14.654 11.6918 14.8045 12.0304 15.0129C12.4389 15.2641 12.9474 15.5771 13.8933 15.5771C14.8393 15.5771 15.3477 15.2643 15.7562 15.0129C15.9073 14.9199 16.0397 14.8386 16.1889 14.7771C16.0064 17.5392 13.7012 19.7308 10.8933 19.7308V19.7308ZM10.8933 9.11544C13.455 9.11544 15.5986 10.9395 16.0935 13.3571C15.6257 13.468 15.3051 13.6647 15.0306 13.8335C14.692 14.0419 14.4474 14.1924 13.8933 14.1924C13.3393 14.1924 13.0946 14.0419 12.756 13.8335C12.3475 13.5821 11.8393 13.2692 10.8931 13.2692C9.9472 13.2692 9.43889 13.5821 9.03042 13.8335C8.69184 14.0419 8.4472 14.1924 7.89333 14.1924C7.33927 14.1924 7.09458 14.0419 6.75605 13.8335C6.48159 13.6645 6.16116 13.4679 5.6933 13.3571C6.18825 10.9395 8.33189 9.11544 10.8933 9.11544Z" fill="#606060"/>
</g>
<defs>
<clipPath id="clip0_356_1210">
<rect width="24" height="24" fill="white"/>
</clipPath>
</defs>
</svg>
