<svg width="248" height="211" viewBox="0 0 248 211" fill="none" xmlns="http://www.w3.org/2000/svg">
<g clip-path="url(#clip0_140_1278)">
<path d="M90.1445 177.338C85.2485 177.338 81.3845 173.402 81.3845 168.338C81.3845 163.298 85.2485 159.386 90.1445 159.386C94.8725 159.386 98.5205 162.53 99.0725 167.09H94.2725C93.9125 164.93 92.3045 163.442 90.1925 163.442C87.6485 163.442 86.0405 165.41 86.0405 168.338C86.0405 171.29 87.6485 173.282 90.1925 173.282C92.2805 173.282 93.8885 171.794 94.2725 169.61H99.0725C98.4965 174.218 94.8725 177.338 90.1445 177.338ZM105.09 176.978H100.938V159.746H105.09V176.978ZM112.288 161.066C112.288 162.41 111.208 163.394 109.648 163.394C108.088 163.394 107.008 162.41 107.008 161.066C107.008 159.698 108.088 158.714 109.648 158.714C111.208 158.714 112.288 159.698 112.288 161.066ZM111.736 176.978H107.632V164.066H111.736V176.978ZM119.966 177.218C116.126 177.218 113.462 174.458 113.462 170.522C113.462 166.682 116.246 163.826 119.966 163.826C123.518 163.826 126.158 166.226 126.518 169.826H122.15C122.078 168.41 121.238 167.522 119.99 167.522C118.55 167.522 117.71 168.626 117.71 170.522C117.71 172.466 118.526 173.546 119.99 173.546C121.262 173.546 122.054 172.682 122.15 171.218H126.518C126.158 174.914 123.638 177.218 119.966 177.218ZM132.342 176.978H128.238V159.746H132.342V169.298L136.35 164.066H141.078L136.302 170.186L141.75 176.978H136.518L132.342 171.098V176.978ZM149.023 167.426L151.327 169.826C151.399 169.298 151.447 168.77 151.447 168.266H155.215C155.215 169.586 154.735 171.218 154.015 172.61L158.215 176.978H153.127L151.687 175.514C150.391 176.618 148.951 177.194 147.367 177.194C143.671 177.194 141.295 175.082 141.295 171.77C141.295 170.09 142.279 168.53 144.007 167.45C143.575 166.706 143.335 165.89 143.335 165.05C143.335 162.41 145.615 160.514 148.759 160.514C151.879 160.514 153.895 162.338 153.895 165.146H150.055C149.959 164.258 149.527 163.802 148.759 163.802C148.063 163.802 147.583 164.306 147.583 165.074C147.583 165.77 148.015 166.37 149.023 167.426ZM145.231 171.53C145.231 172.97 146.143 173.81 147.703 173.81C148.375 173.81 148.975 173.618 149.503 173.282L146.167 169.874C145.567 170.258 145.231 170.834 145.231 171.53ZM165.885 177.338C160.989 177.338 157.125 173.402 157.125 168.338C157.125 163.298 160.989 159.386 165.885 159.386C170.613 159.386 174.261 162.53 174.813 167.09H170.013C169.653 164.93 168.045 163.442 165.933 163.442C163.389 163.442 161.781 165.41 161.781 168.338C161.781 171.29 163.389 173.282 165.933 173.282C168.021 173.282 169.629 171.794 170.013 169.61H174.813C174.237 174.218 170.613 177.338 165.885 177.338ZM180.83 176.978H176.678V159.746H180.83V176.978ZM189.204 177.194C185.22 177.194 182.556 174.506 182.556 170.498C182.556 166.634 185.34 163.826 189.18 163.826C193.452 163.826 196.308 167.306 195.564 171.554H186.804C187.02 173.186 187.788 174.002 189.108 174.002C190.26 174.002 191.028 173.522 191.388 172.586H195.492C194.7 175.538 192.42 177.194 189.204 177.194ZM189.084 166.85C187.86 166.85 187.14 167.546 186.852 168.986H191.172C191.124 167.69 190.308 166.85 189.084 166.85ZM204.962 176.978V175.73C204.05 176.762 202.922 177.218 201.266 177.218C198.578 177.218 196.778 175.61 196.778 173.162C196.778 170.642 198.818 169.274 202.514 169.274C203.21 169.274 203.858 169.322 204.41 169.418V168.794C204.41 167.666 203.762 167.042 202.61 167.042C201.482 167.042 200.81 167.666 200.666 168.794H196.97C197.21 165.794 199.442 163.826 202.634 163.826C206.186 163.826 208.274 165.746 208.274 169.01V176.978H204.962ZM200.642 173.042C200.642 173.882 201.218 174.386 202.226 174.386C203.594 174.386 204.41 173.738 204.41 172.682V171.866C203.786 171.746 203.306 171.698 202.778 171.698C201.386 171.698 200.642 172.154 200.642 173.042ZM214.786 170.186V176.978H210.682V164.066H214.45V165.626C215.458 164.498 216.658 163.826 218.29 163.826C220.834 163.826 222.634 165.53 222.634 168.674V176.978H218.53V170.042C218.53 168.41 217.954 167.522 216.706 167.522C215.698 167.522 214.786 168.242 214.786 170.186Z" fill="#146E8A"/>
<path d="M115.963 68.9505C120.376 78.9853 115.974 90.5732 106.135 94.8426C105.141 95.2751 104.112 95.6215 103.058 95.878C102.973 95.9031 102.89 95.9213 102.807 95.9396C99.1388 96.8267 95.5546 98.0285 92.0953 99.5316C59.2445 113.797 44.2473 151.801 58.6061 184.435C62.0104 192.199 66.9269 199.217 73.0728 205.086C73.8611 206.353 74.6947 207.574 75.5734 208.749C75.6538 208.865 75.7319 208.977 75.8168 209.082C75.268 208.822 74.7169 208.557 74.1727 208.284C57.2821 199.883 43.8988 185.858 36.3596 168.655C18.4714 127.994 37.1587 80.6228 78.0971 62.8658C81.6993 61.2986 85.4124 59.9959 89.2065 58.9682C89.5372 58.8724 89.8748 58.7857 90.21 58.699C91.241 58.5111 92.2612 58.269 93.2664 57.9738C95.1141 57.5679 96.9665 57.2318 98.8234 56.9658C106.029 57.358 112.819 61.7984 115.963 68.9505Z" fill="#1089AA"/>
<path opacity="0.1" d="M75.8122 209.082C74.8432 207.8 73.9285 206.468 73.0681 205.086C75.307 207.229 77.7008 209.206 80.2303 211.002C78.7423 210.407 77.2658 209.764 75.8122 209.082Z" fill="black"/>
<path d="M128.962 102.118C131.977 108.976 128.962 116.901 122.243 119.82C120.813 120.441 119.281 120.8 117.722 120.881C110.912 121.179 104.217 122.725 97.9738 125.442C69.8763 137.639 57.0584 170.129 69.3321 198.032C70.4033 200.471 71.652 202.828 73.0681 205.086C66.9223 199.217 62.0058 192.199 58.6015 184.435C44.2473 151.801 59.2444 113.797 92.1021 99.5315C95.5615 98.0285 99.1457 96.8266 102.814 95.9395C102.897 95.9213 102.98 95.903 103.065 95.878C106.447 95.0751 109.889 94.5458 113.357 94.2952C115.203 94.1599 117.04 94.1029 118.868 94.1242C121.082 94.5313 123.161 95.4735 124.921 96.8676C126.682 98.2617 128.07 100.065 128.962 102.118Z" fill="#10AFCF"/>
<path d="M112.123 17.7481C113.69 21.3085 114.535 25.1405 114.61 29.0252C114.685 32.9099 113.989 36.7713 112.562 40.3889C111.134 44.0065 109.003 47.3094 106.291 50.1091C103.578 52.9088 100.337 55.1504 96.752 56.706C96.504 56.8132 96.2491 56.9203 95.9988 57.023C93.9837 57.2048 92.0116 57.7101 90.1594 58.5191C89.9412 58.6126 89.7208 58.7152 89.5072 58.8201C89.4043 58.864 89.3039 58.9135 89.2064 58.9684C85.4123 59.9961 81.6992 61.2988 78.0969 62.866C37.1586 80.6321 18.4713 127.994 36.3594 168.656C43.8981 185.857 57.2805 199.883 74.1703 208.284C52.5616 200.971 33.7973 187.128 20.5058 168.694C20.4818 168.665 20.4603 168.634 20.4415 168.601C16.012 162.434 12.241 155.825 9.18966 148.882C-15.0363 93.8074 10.2781 29.6576 65.7245 5.59688C66.2664 5.36882 66.8129 5.14076 67.3549 4.91269C71.8003 3.06033 76.3637 1.5008 81.0155 0.244228C87.4093 -0.57224 93.8972 0.692369 99.506 3.84834C105.115 7.0043 109.542 11.8815 112.123 17.7481Z" fill="#146E8A"/>
<path d="M159.749 36.6955C147.133 36.6955 159.749 19.3398 159.749 19.3398C159.749 19.3398 172.365 36.6955 159.749 36.6955Z" fill="#1089AA"/>
<path d="M154.141 79.113C128.909 79.113 154.141 44.404 154.141 44.404C154.141 44.404 179.373 79.113 154.141 79.113Z" fill="#146E8A"/>
<path d="M165.356 102.223C152.639 102.223 165.356 84.7302 165.356 84.7302C165.356 84.7302 178.073 102.223 165.356 102.223Z" fill="#10AFCF"/>
<path d="M186.443 58.1494C171.09 58.1494 186.443 37.0307 186.443 37.0307C186.443 37.0307 201.794 58.1494 186.443 58.1494Z" fill="#146E8A"/>
<path d="M178.482 148.636C163.129 148.636 178.482 127.517 178.482 127.517C178.482 127.517 193.835 148.636 178.482 148.636Z" fill="#10AFCF"/>
<path d="M187.929 80.4449C183.366 80.4449 187.929 74.1686 187.929 74.1686C187.929 74.1686 192.492 80.4449 187.929 80.4449Z" fill="#5391F5"/>
<path d="M130.234 83.9206C119.671 83.9206 130.234 69.377 130.234 69.377C130.234 69.377 140.807 83.9206 130.234 83.9206Z" fill="#1089AA"/>
<path d="M197.964 101.762C188.857 101.762 197.964 89.2345 197.964 89.2345C197.964 89.2345 207.073 101.762 197.964 101.762Z" fill="#10AFCF"/>
<path d="M159.046 123.998C149.558 123.998 159.046 110.948 159.046 110.948C159.046 110.948 168.532 123.998 159.046 123.998Z" fill="#146E8A"/>
<path d="M144.207 97.5109C136.203 97.5109 144.207 86.5 144.207 86.5C144.207 86.5 152.21 97.5109 144.207 97.5109Z" fill="#1089AA"/>
<path d="M185.311 116.454C177.309 116.454 185.311 105.443 185.311 105.443C185.311 105.443 193.309 116.454 185.311 116.454Z" fill="#1089AA"/>
</g>
<defs>
<clipPath id="clip0_140_1278">
<rect width="248" height="211" fill="white"/>
</clipPath>
</defs>
</svg>
